<svg width="20" height="19" viewBox="0 0 20 19" fill="none" xmlns="http://www.w3.org/2000/svg">
<rect width="18.6667" height="18.6667" transform="translate(0.666748)" fill="white"/>
<path fill-rule="evenodd" clip-rule="evenodd" d="M18.5864 9.53658C18.5864 8.90233 18.5295 8.29249 18.4238 7.70703H9.99976V11.1669H14.8135C14.6061 12.285 13.976 13.2323 13.0287 13.8665V16.1107H15.9194C17.6107 14.5536 18.5864 12.2606 18.5864 9.53658Z" fill="#4285F4"/>
<path fill-rule="evenodd" clip-rule="evenodd" d="M9.99943 18.2772C12.4144 18.2772 14.4391 17.4763 15.919 16.1102L13.0283 13.866C12.2274 14.4027 11.2029 14.7198 9.99943 14.7198C7.66981 14.7198 5.69796 13.1464 4.99461 11.0322H2.00635V13.3497C3.47812 16.2729 6.50296 18.2772 9.99943 18.2772Z" fill="#34A853"/>
<path fill-rule="evenodd" clip-rule="evenodd" d="M4.99504 11.0327C4.81615 10.4961 4.71451 9.9228 4.71451 9.33327C4.71451 8.74375 4.81615 8.1705 4.99504 7.63383V5.31641H2.00678C1.401 6.52391 1.05542 7.88997 1.05542 9.33327C1.05542 10.7766 1.401 12.1426 2.00678 13.3501L4.99504 11.0327Z" fill="#FBBC05"/>
<path fill-rule="evenodd" clip-rule="evenodd" d="M9.99943 3.94612C11.3126 3.94612 12.4917 4.39741 13.4186 5.28372L15.9841 2.71829C14.4351 1.27499 12.4104 0.388672 9.99943 0.388672C6.50296 0.388672 3.47812 2.39304 2.00635 5.31625L4.99461 7.63367C5.69796 5.51953 7.66981 3.94612 9.99943 3.94612Z" fill="#EA4335"/>
</svg>
