<svg width="33" height="35" viewBox="0 0 33 35" fill="none" xmlns="http://www.w3.org/2000/svg">
<path fill-rule="evenodd" clip-rule="evenodd" d="M16.9666 3.5345C13.8665 3.5345 11.3533 6.04765 11.3533 9.14776C11.3533 12.2479 13.8665 14.761 16.9666 14.761C20.0668 14.761 22.5799 12.2479 22.5799 9.14776C22.5799 6.04765 20.0668 3.5345 16.9666 3.5345ZM8.60205 9.14776C8.60205 4.52814 12.347 0.783203 16.9666 0.783203C21.5862 0.783203 25.3312 4.52814 25.3312 9.14776C25.3312 13.7674 21.5862 17.5123 16.9666 17.5123C12.347 17.5123 8.60205 13.7674 8.60205 9.14776Z" fill="black" fill-opacity="0.4"/>
<path fill-rule="evenodd" clip-rule="evenodd" d="M6.47303 23.175C8.98694 21.6744 12.3882 20.6748 16.9663 20.6748C21.5444 20.6748 24.9457 21.6744 27.4596 23.175C29.9746 24.6762 31.5211 26.631 32.4633 28.415L32.4634 28.415C33.3065 30.0117 33.0306 31.6683 32.0736 32.87C31.1531 34.026 29.6548 34.7159 28.0464 34.7159H5.88616C4.27776 34.7159 2.77945 34.026 1.85894 32.87C0.901922 31.6682 0.62608 30.0116 1.46933 28.415C2.41151 26.631 3.95805 24.6762 6.47303 23.175ZM7.8832 25.5374C5.86662 26.7411 4.64686 28.2898 3.90217 29.6999L3.90216 29.6999C3.59866 30.2745 3.69521 30.7593 4.01118 31.1561C4.36366 31.5988 5.03894 31.9646 5.88616 31.9646H28.0464C28.8936 31.9646 29.5689 31.5988 29.9214 31.1561C30.2374 30.7593 30.334 30.2745 30.0305 29.6999C29.2858 28.2898 28.066 26.7411 26.0494 25.5374C24.0317 24.333 21.1362 23.4261 16.9663 23.4261C12.7965 23.4261 9.90086 24.333 7.8832 25.5374Z" fill="black" fill-opacity="0.4"/>
</svg>
